<svg xmlns="http://www.w3.org/2000/svg" xmlns:xlink="http://www.w3.org/1999/xlink" width="987" zoomAndPan="magnify" viewBox="0 0 333 333.00002" height="987" preserveAspectRatio="xMidYMid meet" version="1.2"><defs><clipPath id="5f749abe32"><path d="M 75.3125 38.453125 L 332.5 38.453125 L 332.5 332.003906 L 75.3125 332.003906 Z M 75.3125 38.453125 "/></clipPath></defs><g id="f3a1aa4f95"><g clip-rule="nonzero" clip-path="url(#5f749abe32)"><path style=" stroke:none;fill-rule:nonzero;fill:#88181d;fill-opacity:1;" d="M 658.46875 451.105469 C 612.382812 423.761719 575.878906 411.566406 540.105469 411.566406 C 515.183594 411.566406 489.90625 417.496094 461.277344 430.332031 C 436.515625 413.03125 409.269531 400.628906 380.550781 393.464844 C 426.757812 371.277344 458.753906 324.042969 458.820312 269.464844 L 460.464844 269.464844 C 475.554688 269.464844 487.828125 257.1875 487.828125 242.101562 L 487.828125 236.03125 C 487.828125 224.730469 480.941406 215.003906 471.136719 210.835938 L 471.136719 209.625 C 471.136719 174.394531 458.550781 140.101562 435.699219 113.058594 C 415.023438 88.59375 387.101562 71.371094 356.375 63.890625 L 356.375 63.425781 C 356.375 49.65625 345.171875 38.453125 331.398438 38.453125 L 310.9375 38.453125 C 297.164062 38.453125 285.960938 49.65625 285.960938 63.425781 L 285.960938 63.894531 C 255.234375 71.371094 227.316406 88.59375 206.640625 113.058594 C 183.785156 140.101562 171.199219 174.394531 171.199219 209.625 L 171.199219 210.835938 C 161.398438 215.003906 154.507812 224.726562 154.507812 236.03125 L 154.507812 242.101562 C 154.507812 257.191406 166.78125 269.464844 181.871094 269.464844 L 183.519531 269.464844 C 183.585938 324.09375 215.636719 371.363281 261.917969 393.523438 C 161.441406 418.734375 84.027344 506.417969 75.980469 613.648438 C 75.421875 621.085938 77.996094 628.46875 83.035156 633.902344 C 88.078125 639.335938 95.246094 642.453125 102.707031 642.453125 L 457.636719 642.453125 C 458.984375 643.507812 460.351562 644.546875 461.761719 645.5625 L 534.054688 697.519531 C 535.863281 698.820312 537.984375 699.46875 540.105469 699.46875 C 542.226562 699.46875 544.347656 698.820312 546.15625 697.519531 L 618.449219 645.5625 C 647.949219 624.355469 663.546875 593.945312 663.546875 557.613281 L 663.546875 460.023438 C 663.546875 456.363281 661.617188 452.972656 658.46875 451.105469 Z M 437.199219 621.714844 L 331.539062 621.714844 L 331.539062 532.101562 L 409.179688 424.929688 C 419.707031 429.445312 429.921875 434.785156 439.757812 440.9375 C 433.910156 444.0625 427.914062 447.441406 421.746094 451.105469 C 418.597656 452.972656 416.667969 456.363281 416.667969 460.023438 L 416.667969 557.613281 C 416.664062 581.972656 423.6875 603.667969 437.199219 621.714844 Z M 321.167969 511.066406 L 253.382812 417.496094 C 274.847656 410.648438 297.632812 406.945312 321.167969 406.945312 C 344.480469 406.945312 367.277344 410.503906 389.011719 417.417969 Z M 310.800781 532.101562 L 310.800781 621.714844 L 172.492188 621.714844 C 189.679688 564.046875 196.242188 505.722656 192.007812 448.058594 C 204.851562 439.003906 218.65625 431.257812 233.222656 425.011719 Z M 381.777344 95.484375 L 375.882812 183.761719 C 375.503906 189.476562 379.824219 194.417969 385.539062 194.800781 C 385.773438 194.816406 386.007812 194.824219 386.238281 194.824219 C 391.652344 194.824219 396.210938 190.625 396.574219 185.144531 L 401.6875 108.570312 C 431.394531 132.25 450.085938 168.550781 450.378906 208.667969 L 356.375 208.667969 L 356.375 85.304688 C 365.296875 87.828125 373.800781 91.25 381.777344 95.484375 Z M 310.9375 59.191406 L 331.398438 59.191406 C 333.695312 59.191406 335.636719 61.128906 335.636719 63.425781 L 335.636719 208.667969 L 306.703125 208.667969 L 306.703125 63.425781 C 306.703125 61.128906 308.640625 59.191406 310.9375 59.191406 Z M 240.648438 108.570312 L 245.761719 185.144531 C 246.128906 190.625 250.6875 194.824219 256.097656 194.824219 C 256.332031 194.824219 256.5625 194.816406 256.800781 194.800781 C 262.511719 194.417969 266.835938 189.476562 266.453125 183.761719 L 260.558594 95.484375 C 268.535156 91.25 277.039062 87.828125 285.960938 85.304688 L 285.960938 208.667969 L 191.960938 208.667969 C 192.253906 168.550781 210.941406 132.25 240.648438 108.570312 Z M 175.246094 242.101562 L 175.246094 236.03125 C 175.246094 232.441406 178.28125 229.40625 181.871094 229.40625 L 460.464844 229.40625 C 464.054688 229.40625 467.089844 232.441406 467.089844 236.03125 L 467.089844 242.101562 C 467.089844 245.691406 464.054688 248.726562 460.464844 248.726562 L 181.871094 248.726562 C 178.28125 248.726562 175.246094 245.695312 175.246094 242.101562 Z M 204.257812 269.464844 L 438.082031 269.464844 C 437.988281 333.851562 385.578125 386.207031 321.167969 386.207031 C 256.757812 386.207031 204.347656 333.851562 204.257812 269.464844 Z M 98.238281 619.796875 C 97.09375 618.5625 96.53125 616.929688 96.660156 615.199219 C 101.179688 554.972656 129.601562 501.476562 172.132812 463.785156 C 174.292969 516.273438 167.148438 569.273438 150.8125 621.714844 L 102.707031 621.714844 C 100.972656 621.714844 99.386719 621.035156 98.238281 619.796875 Z M 642.808594 557.613281 C 642.808594 586.988281 630.199219 611.578125 606.347656 628.722656 L 540.105469 676.332031 L 473.867188 628.722656 C 450.011719 611.578125 437.40625 586.988281 437.40625 557.613281 L 437.40625 465.964844 C 515.347656 420.917969 564.867188 420.917969 642.808594 465.964844 Z M 540.105469 447.789062 C 515.042969 447.789062 489.820312 455.25 458.332031 471.972656 C 454.945312 473.773438 452.824219 477.296875 452.824219 481.128906 L 452.824219 557.609375 C 452.824219 582.160156 462.929688 601.871094 482.863281 616.199219 L 534.054688 652.988281 C 535.863281 654.289062 537.984375 654.941406 540.105469 654.941406 C 542.230469 654.941406 544.351562 654.289062 546.160156 652.988281 L 597.347656 616.199219 C 617.28125 601.871094 627.390625 582.15625 627.390625 557.609375 L 627.390625 481.132812 C 627.390625 477.296875 625.273438 473.773438 621.886719 471.972656 C 590.390625 455.25 565.167969 447.789062 540.105469 447.789062 Z M 606.648438 557.613281 C 606.648438 575.351562 599.648438 589.007812 585.242188 599.359375 L 540.105469 631.804688 L 494.964844 599.359375 C 480.5625 589.007812 473.5625 575.351562 473.5625 557.613281 L 473.5625 487.429688 C 523.1875 462.273438 557.019531 462.273438 606.648438 487.433594 Z M 529.550781 550.804688 L 569.472656 510.511719 C 573.503906 506.445312 580.066406 506.414062 584.136719 510.445312 C 588.203125 514.476562 588.234375 521.039062 584.203125 525.109375 L 537.046875 572.707031 C 535.019531 574.753906 532.351562 575.777344 529.679688 575.777344 C 527.066406 575.777344 524.457031 574.796875 522.441406 572.835938 L 496.136719 547.195312 C 492.035156 543.195312 491.953125 536.632812 495.949219 532.53125 C 499.945312 528.433594 506.511719 528.347656 510.613281 532.34375 Z M 529.550781 550.804688 "/></g></g></svg>