<svg xmlns="http://www.w3.org/2000/svg" xmlns:xlink="http://www.w3.org/1999/xlink" width="987" zoomAndPan="magnify" viewBox="0 0 333 333.00002" height="987" preserveAspectRatio="xMidYMid meet" version="1.2"><defs><clipPath id="b2788a1302"><path d="M 75 36 L 332.5 36 L 332.5 332.003906 L 75 332.003906 Z M 75 36 "/></clipPath></defs><g id="e3eda23509"><g clip-rule="nonzero" clip-path="url(#b2788a1302)"><path style=" stroke:none;fill-rule:nonzero;fill:#88181d;fill-opacity:1;" d="M 155.625 190.09375 C 155.625 201.558594 161.355469 213.019531 170.527344 219.898438 L 226.699219 262.316406 L 226.699219 280.65625 C 226.699219 290.976562 234.722656 299 245.042969 299 L 314.972656 299 L 314.972656 320.78125 L 273.703125 320.78125 C 263.382812 320.78125 254.214844 325.367188 246.1875 332.246094 C 239.308594 339.121094 234.722656 349.441406 234.722656 359.757812 C 234.722656 380.390625 251.921875 397.585938 272.554688 397.585938 L 436.488281 397.585938 C 446.804688 397.585938 455.976562 393.003906 462.851562 386.125 C 469.730469 379.246094 474.316406 368.929688 474.316406 358.609375 C 474.316406 337.976562 457.121094 320.78125 436.488281 320.78125 L 395.21875 320.78125 L 395.21875 299 L 465.144531 299 C 475.464844 299 483.488281 290.976562 483.488281 280.65625 L 483.488281 262.316406 L 539.660156 219.898438 C 548.832031 213.019531 554.5625 201.558594 554.5625 190.09375 L 554.5625 110.992188 L 619.90625 110.992188 C 627.929688 110.992188 634.808594 104.117188 634.808594 96.089844 L 634.808594 51.382812 C 634.808594 43.359375 627.929688 36.480469 619.90625 36.480469 L 90.28125 36.480469 C 82.257812 36.480469 75.378906 43.359375 75.378906 51.382812 L 75.378906 96.089844 C 75.378906 104.117188 82.257812 110.992188 90.28125 110.992188 L 155.625 110.992188 Z M 226.699219 233.65625 L 184.285156 201.558594 C 180.84375 199.265625 178.550781 194.679688 178.550781 190.09375 L 178.550781 110.992188 L 314.972656 110.992188 L 314.972656 221.046875 L 245.042969 221.046875 C 235.871094 221.046875 228.992188 225.632812 226.699219 233.65625 Z M 336.75 221.046875 L 336.75 110.992188 L 372.289062 110.992188 L 372.289062 221.046875 Z M 383.753906 343.707031 L 436.488281 343.707031 C 444.511719 343.707031 451.390625 350.585938 451.390625 358.609375 C 451.390625 363.195312 450.242188 366.636719 446.804688 370.074219 C 444.511719 372.367188 439.925781 374.660156 436.488281 374.660156 L 272.554688 374.660156 C 264.53125 374.660156 257.652344 367.78125 257.652344 359.757812 C 257.652344 355.171875 258.796875 351.734375 262.238281 348.292969 C 264.53125 344.855469 269.117188 343.707031 272.554688 343.707031 L 325.289062 343.707031 C 332.167969 343.707031 336.75 339.121094 336.75 332.246094 L 336.75 299 L 372.289062 299 L 372.289062 332.246094 C 372.289062 337.976562 378.019531 343.707031 383.753906 343.707031 Z M 461.707031 274.925781 L 248.480469 274.925781 L 248.480469 242.828125 L 461.707031 242.828125 Z M 531.636719 190.09375 C 531.636719 194.679688 529.34375 198.117188 525.902344 201.558594 L 483.488281 233.65625 C 481.195312 226.777344 474.316406 221.046875 466.292969 221.046875 L 396.363281 221.046875 L 396.363281 110.992188 L 532.78125 110.992188 L 532.78125 190.09375 Z M 98.304688 59.40625 L 610.734375 59.40625 L 610.734375 88.066406 L 98.304688 88.066406 Z M 98.304688 59.40625 "/></g></g></svg>