<svg xmlns="http://www.w3.org/2000/svg" xmlns:xlink="http://www.w3.org/1999/xlink" width="987" zoomAndPan="magnify" viewBox="0 0 333 333.00002" height="987" preserveAspectRatio="xMidYMid meet" version="1.2"><defs><clipPath id="2ebb80ec7b"><path d="M 28 44 L 332.5 44 L 332.5 332.003906 L 28 332.003906 Z M 28 44 "/></clipPath></defs><g id="95286aa2f8"><g clip-rule="nonzero" clip-path="url(#2ebb80ec7b)"><path style=" stroke:none;fill-rule:nonzero;fill:#88181d;fill-opacity:1;" d="M 710.125 546.574219 C 710.296875 547.066406 710.445312 547.5625 710.566406 548.070312 C 710.691406 548.574219 710.789062 549.085938 710.863281 549.601562 C 710.9375 550.117188 710.984375 550.636719 711.007812 551.15625 C 711.027344 551.675781 711.027344 552.199219 710.996094 552.71875 C 710.96875 553.238281 710.914062 553.753906 710.832031 554.269531 C 710.753906 554.785156 710.648438 555.292969 710.519531 555.796875 C 710.390625 556.300781 710.234375 556.800781 710.058594 557.289062 C 709.878906 557.777344 709.675781 558.257812 709.449219 558.726562 C 709.222656 559.195312 708.976562 559.652344 708.707031 560.097656 C 708.433594 560.542969 708.140625 560.972656 707.828125 561.390625 C 707.515625 561.804688 707.183594 562.207031 706.832031 562.589844 C 706.480469 562.972656 706.109375 563.339844 705.71875 563.683594 C 705.332031 564.03125 704.925781 564.359375 704.507812 564.667969 C 704.085938 564.972656 703.652344 565.261719 703.203125 565.523438 C 702.753906 565.789062 702.292969 566.03125 701.820312 566.25 C 701.347656 566.46875 700.867188 566.664062 700.375 566.835938 C 699.882812 567.007812 699.382812 567.15625 698.878906 567.28125 C 698.371094 567.402344 697.859375 567.5 697.34375 567.574219 C 696.828125 567.644531 696.3125 567.691406 695.789062 567.714844 C 695.269531 567.734375 694.75 567.730469 694.230469 567.703125 C 693.710938 567.671875 693.191406 567.617188 692.679688 567.539062 C 692.164062 567.457031 691.652344 567.351562 691.148438 567.222656 C 690.644531 567.089844 690.148438 566.9375 689.660156 566.757812 C 689.171875 566.578125 688.691406 566.375 688.222656 566.148438 C 687.753906 565.921875 687.296875 565.671875 686.851562 565.402344 C 686.40625 565.128906 685.976562 564.835938 685.5625 564.523438 C 685.144531 564.210938 684.746094 563.875 684.363281 563.523438 C 683.980469 563.171875 683.617188 562.800781 683.269531 562.410156 C 682.921875 562.023438 682.59375 561.617188 682.289062 561.195312 C 681.980469 560.773438 681.695312 560.339844 681.433594 559.890625 C 681.167969 559.441406 680.925781 558.980469 680.707031 558.507812 C 680.488281 558.035156 680.296875 557.554688 680.125 557.0625 L 671.222656 531.574219 C 670.839844 530.460938 670.304688 529.421875 669.621094 528.460938 C 668.9375 527.503906 668.128906 526.660156 667.203125 525.933594 C 666.273438 525.207031 665.261719 524.628906 664.164062 524.195312 C 663.066406 523.761719 661.933594 523.496094 660.757812 523.390625 C 659.582031 523.289062 658.417969 523.355469 657.261719 523.589844 C 656.109375 523.824219 655.011719 524.21875 653.96875 524.769531 C 652.929688 525.324219 651.988281 526.011719 651.144531 526.839844 C 650.304688 527.664062 649.597656 528.59375 649.027344 529.621094 C 646.839844 533.492188 644.570312 537.316406 642.226562 541.09375 C 639.878906 544.871094 637.457031 548.597656 634.960938 552.277344 C 632.460938 555.957031 629.890625 559.582031 627.242188 563.152344 C 624.59375 566.726562 621.875 570.242188 619.082031 573.703125 C 616.292969 577.164062 613.429688 580.5625 610.5 583.90625 C 607.566406 587.25 604.570312 590.53125 601.503906 593.753906 C 598.4375 596.972656 595.308594 600.128906 592.109375 603.21875 C 588.914062 606.3125 585.65625 609.335938 582.339844 612.292969 C 579.019531 615.25 575.640625 618.140625 572.203125 620.957031 C 568.761719 623.777344 565.269531 626.523438 561.71875 629.199219 C 558.164062 631.875 554.5625 634.476562 550.902344 637.003906 C 547.246094 639.53125 543.539062 641.984375 539.777344 644.359375 C 536.019531 646.734375 532.214844 649.03125 528.359375 651.25 C 524.507812 653.46875 520.613281 655.609375 516.671875 657.667969 C 512.730469 659.726562 508.75 661.703125 504.726562 663.597656 C 500.703125 665.496094 496.644531 667.308594 492.550781 669.035156 C 488.453125 670.765625 484.324219 672.410156 480.160156 673.96875 C 475.996094 675.527344 471.800781 677 467.578125 678.386719 C 463.351562 679.773438 459.101562 681.074219 454.824219 682.289062 C 450.546875 683.5 446.246094 684.625 441.921875 685.660156 C 437.597656 686.695312 433.253906 687.644531 428.890625 688.5 C 424.527344 689.359375 420.152344 690.125 415.757812 690.804688 C 411.363281 691.480469 406.957031 692.070312 402.539062 692.566406 C 398.117188 693.0625 393.691406 693.46875 389.257812 693.785156 C 384.824219 694.101562 380.382812 694.324219 375.9375 694.457031 C 371.496094 694.589844 367.050781 694.632812 362.601562 694.582031 C 358.15625 694.53125 353.714844 694.390625 349.273438 694.160156 C 344.832031 693.929688 340.398438 693.605469 335.972656 693.191406 C 331.546875 692.777344 327.128906 692.273438 322.722656 691.675781 C 318.316406 691.082031 313.925781 690.398438 309.546875 689.621094 C 305.167969 688.84375 300.808594 687.980469 296.464844 687.027344 C 292.125 686.070312 287.804688 685.027344 283.503906 683.894531 C 279.203125 682.761719 274.929688 681.542969 270.679688 680.234375 C 266.429688 678.929688 262.207031 677.535156 258.015625 676.054688 C 253.824219 674.574219 249.664062 673.007812 245.535156 671.355469 C 241.40625 669.703125 237.316406 667.96875 233.257812 666.148438 C 229.203125 664.328125 225.183594 662.425781 221.203125 660.441406 C 217.226562 658.457031 213.289062 656.390625 209.394531 654.242188 C 205.503906 652.097656 201.652344 649.871094 197.851562 647.566406 C 194.050781 645.265625 190.296875 642.882812 186.589844 640.425781 C 182.886719 637.964844 179.234375 635.433594 175.632812 632.824219 C 172.03125 630.214844 168.484375 627.535156 164.996094 624.78125 C 161.503906 622.027344 158.070312 619.203125 154.699219 616.308594 C 151.324219 613.410156 148.007812 610.449219 144.757812 607.417969 C 141.503906 604.386719 138.3125 601.289062 135.1875 598.128906 C 132.0625 594.96875 129 591.742188 126.007812 588.453125 C 123.015625 585.167969 120.089844 581.820312 117.234375 578.410156 C 114.378906 575.003906 111.59375 571.539062 108.878906 568.015625 C 106.164062 564.496094 103.523438 560.917969 100.957031 557.289062 C 98.390625 553.660156 95.898438 549.976562 93.484375 546.246094 C 91.066406 542.511719 88.730469 538.730469 86.46875 534.902344 C 84.207031 531.074219 82.027344 527.199219 79.925781 523.28125 C 77.824219 519.363281 75.804688 515.402344 73.867188 511.402344 C 71.925781 507.402344 70.070312 503.363281 68.296875 499.285156 C 66.523438 495.207031 64.835938 491.097656 63.230469 486.949219 C 61.625 482.800781 60.109375 478.625 58.675781 474.414062 C 57.242188 470.207031 55.898438 465.96875 54.636719 461.707031 C 53.378906 457.441406 52.207031 453.152344 51.125 448.839844 C 50.042969 444.527344 49.050781 440.195312 48.144531 435.84375 C 47.238281 431.488281 46.425781 427.117188 45.699219 422.730469 C 44.972656 418.34375 44.339844 413.945312 43.792969 409.535156 C 43.25 405.121094 42.792969 400.699219 42.429688 396.265625 C 42.066406 391.835938 41.796875 387.398438 41.613281 382.957031 C 41.433594 378.515625 41.34375 374.070312 41.34375 369.625 C 41.34375 369.105469 41.371094 368.585938 41.421875 368.070312 C 41.472656 367.550781 41.546875 367.039062 41.648438 366.53125 C 41.75 366.019531 41.878906 365.519531 42.027344 365.019531 C 42.179688 364.523438 42.355469 364.035156 42.550781 363.554688 C 42.75 363.078125 42.972656 362.609375 43.21875 362.148438 C 43.460938 361.691406 43.730469 361.246094 44.015625 360.816406 C 44.304688 360.382812 44.613281 359.96875 44.945312 359.566406 C 45.273438 359.164062 45.621094 358.78125 45.988281 358.414062 C 46.355469 358.046875 46.742188 357.699219 47.140625 357.367188 C 47.542969 357.039062 47.960938 356.730469 48.390625 356.441406 C 48.824219 356.152344 49.269531 355.886719 49.726562 355.640625 C 50.183594 355.398438 50.652344 355.175781 51.132812 354.976562 C 51.613281 354.777344 52.101562 354.601562 52.597656 354.453125 C 53.09375 354.300781 53.597656 354.175781 54.105469 354.074219 C 54.617188 353.972656 55.128906 353.898438 55.644531 353.847656 C 56.160156 353.792969 56.679688 353.769531 57.199219 353.769531 C 57.71875 353.769531 58.234375 353.792969 58.753906 353.847656 C 59.269531 353.898438 59.78125 353.972656 60.292969 354.074219 C 60.800781 354.175781 61.304688 354.300781 61.800781 354.453125 C 62.296875 354.601562 62.785156 354.777344 63.265625 354.976562 C 63.746094 355.175781 64.214844 355.398438 64.671875 355.640625 C 65.128906 355.886719 65.574219 356.152344 66.007812 356.441406 C 66.4375 356.730469 66.855469 357.039062 67.257812 357.367188 C 67.65625 357.699219 68.042969 358.046875 68.410156 358.414062 C 68.777344 358.78125 69.125 359.164062 69.453125 359.566406 C 69.785156 359.96875 70.09375 360.382812 70.378906 360.816406 C 70.667969 361.246094 70.9375 361.691406 71.179688 362.148438 C 71.425781 362.609375 71.648438 363.078125 71.847656 363.554688 C 72.042969 364.035156 72.21875 364.523438 72.371094 365.019531 C 72.519531 365.519531 72.648438 366.019531 72.746094 366.53125 C 72.847656 367.039062 72.925781 367.550781 72.976562 368.070312 C 73.027344 368.585938 73.050781 369.105469 73.050781 369.625 C 73.023438 373.582031 73.078125 377.542969 73.210938 381.5 C 73.34375 385.460938 73.554688 389.414062 73.847656 393.363281 C 74.140625 397.3125 74.515625 401.257812 74.96875 405.191406 C 75.421875 409.125 75.957031 413.050781 76.570312 416.960938 C 77.179688 420.875 77.871094 424.773438 78.644531 428.660156 C 79.414062 432.542969 80.265625 436.410156 81.191406 440.261719 C 82.121094 444.113281 83.125 447.941406 84.210938 451.75 C 85.292969 455.5625 86.453125 459.347656 87.691406 463.109375 C 88.925781 466.871094 90.242188 470.609375 91.628906 474.316406 C 93.019531 478.027344 94.480469 481.707031 96.019531 485.355469 C 97.558594 489.003906 99.167969 492.621094 100.855469 496.207031 C 102.539062 499.792969 104.296875 503.339844 106.125 506.851562 C 107.957031 510.367188 109.855469 513.839844 111.824219 517.277344 C 113.796875 520.710938 115.835938 524.105469 117.941406 527.460938 C 120.050781 530.8125 122.226562 534.121094 124.46875 537.386719 C 126.710938 540.652344 129.015625 543.871094 131.390625 547.039062 C 133.761719 550.210938 136.199219 553.332031 138.699219 556.40625 C 141.199219 559.476562 143.761719 562.5 146.382812 565.464844 C 149.003906 568.433594 151.6875 571.347656 154.425781 574.207031 C 157.167969 577.066406 159.964844 579.871094 162.820312 582.617188 C 165.671875 585.363281 168.582031 588.046875 171.546875 590.675781 C 174.507812 593.304688 177.523438 595.871094 180.59375 598.375 C 183.660156 600.878906 186.777344 603.324219 189.945312 605.703125 C 193.109375 608.082031 196.324219 610.394531 199.585938 612.640625 C 202.847656 614.890625 206.152344 617.070312 209.5 619.1875 C 212.847656 621.300781 216.238281 623.34375 219.671875 625.320312 C 223.105469 627.296875 226.574219 629.203125 230.085938 631.039062 C 233.59375 632.875 237.140625 634.640625 240.722656 636.332031 C 244.300781 638.023438 247.917969 639.640625 251.5625 641.183594 C 255.210938 642.730469 258.886719 644.199219 262.59375 645.597656 C 266.300781 646.992188 270.035156 648.3125 273.792969 649.554688 C 277.554688 650.800781 281.339844 651.96875 285.144531 653.058594 C 288.953125 654.148438 292.78125 655.160156 296.628906 656.09375 C 300.480469 657.03125 304.34375 657.886719 308.230469 658.664062 C 312.113281 659.445312 316.011719 660.140625 319.921875 660.761719 C 323.832031 661.382812 327.757812 661.921875 331.691406 662.382812 C 335.625 662.84375 339.566406 663.222656 343.515625 663.523438 C 347.464844 663.824219 351.417969 664.046875 355.375 664.1875 C 359.335938 664.324219 363.292969 664.386719 367.253906 664.363281 C 371.214844 664.34375 375.171875 664.242188 379.128906 664.0625 C 383.085938 663.878906 387.039062 663.617188 390.984375 663.277344 C 394.929688 662.933594 398.867188 662.511719 402.796875 662.011719 C 406.722656 661.511719 410.640625 660.929688 414.546875 660.269531 C 418.453125 659.609375 422.339844 658.867188 426.214844 658.050781 C 430.09375 657.230469 433.949219 656.335938 437.789062 655.359375 C 441.625 654.382812 445.445312 653.332031 449.238281 652.203125 C 453.035156 651.070312 456.808594 649.863281 460.554688 648.582031 C 464.300781 647.296875 468.019531 645.9375 471.710938 644.503906 C 475.40625 643.070312 479.066406 641.5625 482.695312 639.980469 C 486.328125 638.398438 489.925781 636.742188 493.488281 635.011719 C 497.050781 633.28125 500.578125 631.484375 504.066406 629.609375 C 507.558594 627.738281 511.007812 625.796875 514.421875 623.785156 C 517.832031 621.773438 521.203125 619.691406 524.527344 617.542969 C 527.855469 615.394531 531.136719 613.179688 534.375 610.894531 C 537.613281 608.613281 540.800781 606.265625 543.941406 603.855469 C 547.085938 601.445312 550.175781 598.96875 553.21875 596.433594 C 556.257812 593.894531 559.246094 591.296875 562.183594 588.636719 C 565.117188 585.980469 568 583.261719 570.824219 580.488281 C 573.652344 577.710938 576.417969 574.878906 579.128906 571.992188 C 581.839844 569.105469 584.492188 566.164062 587.082031 563.167969 C 589.671875 560.171875 592.203125 557.125 594.671875 554.027344 C 597.136719 550.929688 599.542969 547.78125 601.882812 544.585938 C 604.21875 541.390625 606.496094 538.148438 608.703125 534.859375 C 610.910156 531.574219 613.050781 528.242188 615.125 524.867188 C 615.46875 524.324219 615.769531 523.753906 616.023438 523.164062 C 616.277344 522.570312 616.484375 521.960938 616.644531 521.339844 C 616.804688 520.714844 616.910156 520.082031 616.96875 519.4375 C 617.027344 518.796875 617.035156 518.15625 616.992188 517.511719 C 616.949219 516.867188 616.855469 516.234375 616.710938 515.605469 C 616.566406 514.976562 616.371094 514.363281 616.132812 513.765625 C 615.890625 513.167969 615.601562 512.59375 615.269531 512.042969 C 614.9375 511.492188 614.5625 510.96875 614.148438 510.476562 C 613.734375 509.984375 613.28125 509.523438 612.796875 509.101562 C 612.308594 508.679688 611.789062 508.296875 611.242188 507.957031 C 610.695312 507.617188 610.121094 507.324219 609.527344 507.074219 C 608.933594 506.824219 608.324219 506.625 607.695312 506.472656 C 607.070312 506.320312 606.433594 506.214844 605.792969 506.164062 C 605.148438 506.113281 604.503906 506.113281 603.863281 506.160156 C 603.21875 506.210938 602.585938 506.3125 601.957031 506.464844 C 601.332031 506.613281 600.71875 506.8125 600.125 507.0625 L 580.246094 515.964844 C 579.765625 516.164062 579.273438 516.339844 578.777344 516.492188 C 578.277344 516.644531 577.773438 516.773438 577.261719 516.875 C 576.75 516.976562 576.234375 517.054688 575.714844 517.105469 C 575.199219 517.15625 574.675781 517.183594 574.15625 517.183594 C 573.632812 517.183594 573.113281 517.160156 572.59375 517.109375 C 572.078125 517.058594 571.5625 516.984375 571.050781 516.882812 C 570.539062 516.78125 570.03125 516.65625 569.535156 516.503906 C 569.035156 516.355469 568.542969 516.179688 568.0625 515.980469 C 567.582031 515.78125 567.109375 515.558594 566.648438 515.3125 C 566.191406 515.066406 565.742188 514.800781 565.308594 514.511719 C 564.875 514.222656 564.457031 513.914062 564.054688 513.582031 C 563.648438 513.25 563.265625 512.902344 562.894531 512.535156 C 562.527344 512.164062 562.175781 511.78125 561.84375 511.378906 C 561.511719 510.976562 561.203125 510.558594 560.914062 510.125 C 560.625 509.691406 560.355469 509.242188 560.109375 508.785156 C 559.863281 508.324219 559.640625 507.855469 559.441406 507.371094 C 559.242188 506.890625 559.066406 506.402344 558.914062 505.902344 C 558.761719 505.402344 558.632812 504.898438 558.53125 504.386719 C 558.429688 503.875 558.355469 503.359375 558.300781 502.839844 C 558.25 502.324219 558.226562 501.800781 558.226562 501.28125 C 558.226562 500.757812 558.25 500.238281 558.300781 499.71875 C 558.351562 499.203125 558.429688 498.6875 558.53125 498.175781 C 558.632812 497.664062 558.757812 497.160156 558.910156 496.660156 C 559.058594 496.160156 559.234375 495.671875 559.433594 495.1875 C 559.636719 494.707031 559.855469 494.234375 560.101562 493.777344 C 560.347656 493.316406 560.617188 492.871094 560.90625 492.4375 C 561.195312 492.003906 561.507812 491.585938 561.835938 491.179688 C 562.167969 490.777344 562.515625 490.390625 562.886719 490.023438 C 563.253906 489.65625 563.640625 489.304688 564.042969 488.976562 C 564.445312 488.644531 564.863281 488.335938 565.296875 488.042969 C 565.730469 487.753906 566.179688 487.488281 566.640625 487.242188 C 567.097656 486.996094 567.570312 486.773438 568.050781 486.574219 L 629.027344 461.085938 C 631.832031 459.894531 634.730469 458.992188 637.714844 458.386719 C 640.703125 457.777344 643.722656 457.472656 646.769531 457.472656 C 649.820312 457.472656 652.835938 457.777344 655.824219 458.386719 C 658.8125 458.992188 661.707031 459.894531 664.515625 461.085938 C 667.320312 462.34375 669.972656 463.867188 672.472656 465.660156 C 674.972656 467.449219 677.273438 469.472656 679.367188 471.722656 C 681.460938 473.976562 683.3125 476.414062 684.917969 479.035156 C 686.523438 481.660156 687.851562 484.414062 688.90625 487.304688 Z M 73.785156 270.597656 C 76.589844 271.792969 79.488281 272.691406 82.472656 273.300781 C 85.460938 273.910156 88.480469 274.214844 91.527344 274.214844 C 94.578125 274.214844 97.59375 273.910156 100.582031 273.300781 C 103.570312 272.691406 106.464844 271.792969 109.273438 270.597656 L 170.855469 245.234375 C 171.339844 245.035156 171.808594 244.8125 172.269531 244.566406 C 172.726562 244.320312 173.175781 244.050781 173.605469 243.761719 C 174.039062 243.472656 174.457031 243.160156 174.859375 242.832031 C 175.261719 242.5 175.648438 242.148438 176.015625 241.78125 C 176.386719 241.414062 176.734375 241.027344 177.0625 240.625 C 177.394531 240.21875 177.703125 239.800781 177.992188 239.367188 C 178.28125 238.9375 178.550781 238.488281 178.796875 238.03125 C 179.039062 237.570312 179.261719 237.097656 179.460938 236.617188 C 179.660156 236.136719 179.835938 235.644531 179.988281 235.148438 C 180.136719 234.648438 180.265625 234.144531 180.367188 233.632812 C 180.46875 233.121094 180.542969 232.605469 180.59375 232.085938 C 180.644531 231.570312 180.671875 231.050781 180.667969 230.527344 C 180.667969 230.007812 180.644531 229.488281 180.59375 228.96875 C 180.539062 228.449219 180.464844 227.9375 180.363281 227.425781 C 180.261719 226.914062 180.132812 226.410156 179.980469 225.910156 C 179.832031 225.410156 179.65625 224.921875 179.453125 224.441406 C 179.253906 223.960938 179.03125 223.488281 178.785156 223.03125 C 178.539062 222.570312 178.273438 222.125 177.984375 221.691406 C 177.691406 221.257812 177.382812 220.839844 177.050781 220.4375 C 176.722656 220.035156 176.371094 219.648438 176.003906 219.28125 C 175.632812 218.914062 175.25 218.5625 174.84375 218.234375 C 174.441406 217.902344 174.023438 217.59375 173.589844 217.304688 C 173.15625 217.015625 172.710938 216.746094 172.25 216.503906 C 171.792969 216.257812 171.320312 216.035156 170.839844 215.835938 C 170.359375 215.636719 169.867188 215.460938 169.367188 215.308594 C 168.871094 215.160156 168.363281 215.035156 167.855469 214.933594 C 167.34375 214.832031 166.828125 214.753906 166.308594 214.703125 C 165.789062 214.652344 165.269531 214.628906 164.75 214.628906 C 164.230469 214.628906 163.707031 214.65625 163.191406 214.707031 C 162.671875 214.757812 162.15625 214.832031 161.644531 214.9375 C 161.136719 215.039062 160.628906 215.164062 160.132812 215.316406 C 159.632812 215.46875 159.144531 215.644531 158.664062 215.84375 L 136.953125 224.867188 C 136.351562 225.125 135.734375 225.328125 135.101562 225.484375 C 134.464844 225.640625 133.824219 225.746094 133.171875 225.800781 C 132.519531 225.851562 131.867188 225.855469 131.21875 225.800781 C 130.566406 225.75 129.921875 225.648438 129.289062 225.492188 C 128.652344 225.335938 128.035156 225.132812 127.433594 224.878906 C 126.832031 224.621094 126.253906 224.320312 125.699219 223.972656 C 125.144531 223.625 124.625 223.238281 124.132812 222.804688 C 123.640625 222.375 123.1875 221.90625 122.773438 221.402344 C 122.355469 220.898438 121.984375 220.363281 121.652344 219.800781 C 121.324219 219.234375 121.042969 218.648438 120.804688 218.039062 C 120.570312 217.429688 120.386719 216.804688 120.25 216.164062 C 120.117188 215.523438 120.03125 214.878906 120 214.226562 C 119.96875 213.574219 119.992188 212.921875 120.066406 212.273438 C 120.136719 211.625 120.261719 210.984375 120.441406 210.355469 C 120.617188 209.726562 120.839844 209.113281 121.117188 208.519531 C 121.390625 207.925781 121.710938 207.359375 122.078125 206.820312 C 124.222656 203.542969 126.4375 200.3125 128.714844 197.125 C 130.992188 193.9375 133.332031 190.796875 135.734375 187.707031 C 138.140625 184.613281 140.605469 181.570312 143.128906 178.574219 C 145.65625 175.582031 148.238281 172.640625 150.882812 169.75 C 153.527344 166.859375 156.226562 164.023438 158.984375 161.242188 C 161.742188 158.457031 164.554688 155.734375 167.421875 153.066406 C 170.289062 150.394531 173.210938 147.785156 176.183594 145.234375 C 179.152344 142.683594 182.175781 140.191406 185.246094 137.761719 C 188.320312 135.332031 191.4375 132.964844 194.605469 130.660156 C 197.773438 128.351562 200.984375 126.113281 204.242188 123.9375 C 207.5 121.761719 210.796875 119.652344 214.140625 117.605469 C 217.480469 115.5625 220.863281 113.585938 224.28125 111.679688 C 227.703125 109.773438 231.160156 107.933594 234.65625 106.164062 C 238.152344 104.394531 241.679688 102.695312 245.242188 101.070312 C 248.804688 99.441406 252.398438 97.886719 256.027344 96.402344 C 259.652344 94.921875 263.304688 93.511719 266.988281 92.175781 C 270.667969 90.839844 274.375 89.578125 278.109375 88.390625 C 281.839844 87.203125 285.597656 86.089844 289.375 85.050781 C 293.152344 84.015625 296.949219 83.054688 300.761719 82.171875 C 304.578125 81.285156 308.410156 80.480469 312.257812 79.75 C 316.109375 79.019531 319.96875 78.367188 323.84375 77.789062 C 327.71875 77.214844 331.601562 76.71875 335.496094 76.296875 C 339.390625 75.878906 343.292969 75.535156 347.199219 75.273438 C 351.109375 75.011719 355.019531 74.828125 358.9375 74.722656 C 362.851562 74.617188 366.769531 74.589844 370.683594 74.640625 C 374.601562 74.691406 378.515625 74.820312 382.425781 75.03125 C 386.339844 75.238281 390.246094 75.523438 394.144531 75.890625 C 398.042969 76.257812 401.933594 76.699219 405.816406 77.222656 C 409.699219 77.742188 413.570312 78.34375 417.425781 79.019531 C 421.285156 79.695312 425.128906 80.449219 428.957031 81.28125 C 432.785156 82.113281 436.59375 83.019531 440.386719 84.003906 C 444.175781 84.988281 447.945312 86.050781 451.695312 87.183594 C 455.445312 88.320312 459.167969 89.53125 462.867188 90.816406 C 466.570312 92.101562 470.242188 93.460938 473.886719 94.890625 C 477.53125 96.324219 481.148438 97.828125 484.734375 99.40625 C 488.320312 100.984375 491.871094 102.632812 495.390625 104.355469 C 498.910156 106.074219 502.390625 107.867188 505.839844 109.726562 C 509.285156 111.585938 512.695312 113.515625 516.0625 115.511719 C 519.433594 117.507812 522.761719 119.574219 526.046875 121.703125 C 529.335938 123.835938 532.578125 126.03125 535.777344 128.289062 C 538.976562 130.550781 542.128906 132.875 545.234375 135.261719 C 548.335938 137.652344 551.394531 140.097656 554.402344 142.609375 C 557.40625 145.121094 560.363281 147.6875 563.265625 150.316406 C 566.171875 152.945312 569.019531 155.632812 571.816406 158.375 C 574.613281 161.117188 577.351562 163.917969 580.035156 166.769531 C 582.71875 169.625 585.34375 172.53125 587.914062 175.488281 C 590.480469 178.445312 592.984375 181.457031 595.433594 184.515625 C 597.878906 187.574219 600.261719 190.679688 602.582031 193.835938 C 604.90625 196.992188 607.164062 200.191406 609.355469 203.4375 C 611.546875 206.683594 613.675781 209.972656 615.734375 213.300781 C 617.796875 216.632812 619.789062 220.003906 621.714844 223.414062 C 623.640625 226.824219 625.496094 230.273438 627.285156 233.761719 C 629.070312 237.246094 630.789062 240.765625 632.433594 244.320312 C 634.078125 247.875 635.652344 251.460938 637.15625 255.078125 C 638.65625 258.695312 640.085938 262.34375 641.441406 266.015625 C 642.796875 269.691406 644.078125 273.394531 645.285156 277.121094 C 646.492188 280.84375 647.625 284.59375 648.679688 288.367188 C 649.734375 292.136719 650.714844 295.929688 651.621094 299.742188 C 652.523438 303.550781 653.351562 307.378906 654.101562 311.226562 C 654.851562 315.070312 655.527344 318.925781 656.121094 322.796875 C 656.714844 326.671875 657.234375 330.550781 657.675781 334.445312 C 658.113281 338.335938 658.476562 342.234375 658.757812 346.144531 C 659.042969 350.050781 659.246094 353.960938 659.371094 357.875 C 659.496094 361.789062 659.546875 365.707031 659.515625 369.625 C 659.601562 370.609375 659.777344 371.578125 660.042969 372.535156 C 660.3125 373.488281 660.664062 374.40625 661.101562 375.296875 C 661.539062 376.183594 662.054688 377.023438 662.648438 377.816406 C 663.246094 378.609375 663.90625 379.339844 664.636719 380.007812 C 665.367188 380.675781 666.152344 381.273438 666.992188 381.796875 C 667.835938 382.320312 668.714844 382.757812 669.640625 383.117188 C 670.5625 383.476562 671.511719 383.746094 672.484375 383.929688 C 673.457031 384.113281 674.4375 384.203125 675.429688 384.203125 C 676.417969 384.203125 677.402344 384.113281 678.375 383.929688 C 679.347656 383.746094 680.296875 383.476562 681.21875 383.117188 C 682.140625 382.757812 683.023438 382.320312 683.863281 381.796875 C 684.707031 381.273438 685.492188 380.675781 686.222656 380.007812 C 686.953125 379.339844 687.613281 378.609375 688.207031 377.816406 C 688.800781 377.023438 689.316406 376.183594 689.757812 375.296875 C 690.195312 374.40625 690.546875 373.488281 690.8125 372.535156 C 691.082031 371.578125 691.257812 370.609375 691.34375 369.625 C 691.339844 365.234375 691.242188 360.851562 691.0625 356.46875 C 690.878906 352.082031 690.605469 347.707031 690.246094 343.332031 C 689.886719 338.960938 689.4375 334.597656 688.902344 330.242188 C 688.367188 325.890625 687.742188 321.546875 687.027344 317.21875 C 686.316406 312.890625 685.515625 308.578125 684.628906 304.28125 C 683.742188 299.984375 682.769531 295.707031 681.707031 291.449219 C 680.648438 287.191406 679.503906 282.957031 678.269531 278.746094 C 677.039062 274.535156 675.722656 270.351562 674.320312 266.195312 C 672.921875 262.039062 671.4375 257.910156 669.867188 253.8125 C 668.300781 249.714844 666.652344 245.652344 664.917969 241.621094 C 663.183594 237.589844 661.371094 233.597656 659.476562 229.636719 C 657.582031 225.679688 655.609375 221.765625 653.558594 217.886719 C 651.503906 214.007812 649.375 210.175781 647.164062 206.382812 C 644.957031 202.59375 642.675781 198.847656 640.3125 195.148438 C 637.953125 191.449219 635.519531 187.800781 633.015625 184.203125 C 630.507812 180.601562 627.925781 177.054688 625.277344 173.558594 C 622.625 170.0625 619.90625 166.621094 617.113281 163.234375 C 614.324219 159.851562 611.464844 156.523438 608.542969 153.253906 C 605.617188 149.984375 602.625 146.773438 599.570312 143.625 C 596.515625 140.476562 593.398438 137.390625 590.21875 134.367188 C 587.039062 131.34375 583.800781 128.386719 580.5 125.496094 C 577.199219 122.605469 573.84375 119.78125 570.429688 117.027344 C 567.015625 114.269531 563.546875 111.585938 560.027344 108.96875 C 556.503906 106.355469 552.929688 103.8125 549.304688 101.339844 C 545.679688 98.871094 542.003906 96.472656 538.28125 94.152344 C 534.558594 91.832031 530.792969 89.585938 526.976562 87.417969 C 523.164062 85.246094 519.308594 83.15625 515.410156 81.140625 C 511.511719 79.128906 507.574219 77.195312 503.597656 75.34375 C 499.621094 73.488281 495.609375 71.714844 491.5625 70.023438 C 487.515625 68.332031 483.433594 66.722656 479.320312 65.199219 C 475.207031 63.671875 471.066406 62.230469 466.894531 60.871094 C 462.722656 59.511719 458.523438 58.238281 454.300781 57.050781 C 450.078125 55.863281 445.832031 54.757812 441.566406 53.742188 C 437.296875 52.726562 433.011719 51.796875 428.703125 50.953125 C 424.398438 50.109375 420.078125 49.355469 415.742188 48.6875 C 411.40625 48.019531 407.058594 47.4375 402.699219 46.945312 C 398.339844 46.453125 393.972656 46.050781 389.597656 45.734375 C 385.21875 45.417969 380.839844 45.191406 376.453125 45.054688 C 372.070312 44.914062 367.683594 44.867188 363.296875 44.90625 C 358.910156 44.945312 354.523438 45.074219 350.144531 45.289062 C 345.761719 45.507812 341.386719 45.8125 337.015625 46.207031 C 332.648438 46.601562 328.289062 47.082031 323.9375 47.65625 C 319.585938 48.226562 315.25 48.882812 310.925781 49.628906 C 306.605469 50.375 302.296875 51.210938 298.007812 52.128906 C 293.71875 53.050781 289.449219 54.058594 285.199219 55.148438 C 280.953125 56.242188 276.726562 57.421875 272.527344 58.6875 C 268.324219 59.953125 264.152344 61.300781 260.003906 62.734375 C 255.859375 64.167969 251.742188 65.683594 247.65625 67.285156 C 243.570312 68.882812 239.519531 70.566406 235.503906 72.328125 C 231.488281 74.09375 227.507812 75.9375 223.566406 77.863281 C 219.621094 79.789062 215.722656 81.792969 211.859375 83.875 C 208 85.957031 204.179688 88.117188 200.40625 90.355469 C 196.632812 92.59375 192.90625 94.90625 189.226562 97.292969 C 185.546875 99.683594 181.917969 102.144531 178.335938 104.679688 C 174.753906 107.214844 171.226562 109.820312 167.753906 112.5 C 164.277344 115.179688 160.859375 117.925781 157.496094 120.742188 C 154.132812 123.558594 150.824219 126.441406 147.578125 129.394531 C 144.332031 132.34375 141.144531 135.359375 138.019531 138.4375 C 134.894531 141.515625 131.835938 144.660156 128.835938 147.863281 C 125.839844 151.066406 122.90625 154.328125 120.042969 157.648438 C 117.175781 160.972656 114.378906 164.351562 111.648438 167.785156 C 108.921875 171.21875 106.261719 174.710938 103.675781 178.253906 C 101.085938 181.796875 98.574219 185.390625 96.128906 189.035156 C 93.6875 192.679688 91.320312 196.371094 89.027344 200.113281 C 88.40625 201.136719 87.648438 202.046875 86.757812 202.847656 C 85.867188 203.648438 84.878906 204.304688 83.792969 204.816406 C 82.710938 205.324219 81.574219 205.667969 80.390625 205.84375 C 79.203125 206.015625 78.019531 206.015625 76.832031 205.84375 C 75.6875 205.726562 74.578125 205.449219 73.507812 205.019531 C 72.441406 204.585938 71.453125 204.011719 70.546875 203.300781 C 69.640625 202.589844 68.851562 201.765625 68.175781 200.828125 C 67.503906 199.890625 66.976562 198.878906 66.589844 197.792969 L 58.90625 174.5 C 58.734375 174.011719 58.539062 173.527344 58.320312 173.058594 C 58.101562 172.585938 57.859375 172.125 57.59375 171.675781 C 57.332031 171.226562 57.046875 170.792969 56.738281 170.375 C 56.429688 169.953125 56.105469 169.550781 55.757812 169.160156 C 55.410156 168.773438 55.046875 168.402344 54.664062 168.050781 C 54.28125 167.699219 53.878906 167.363281 53.464844 167.050781 C 53.050781 166.738281 52.621094 166.445312 52.175781 166.175781 C 51.730469 165.90625 51.273438 165.65625 50.804688 165.429688 C 50.335938 165.207031 49.855469 165.003906 49.367188 164.824219 C 48.878906 164.644531 48.382812 164.492188 47.878906 164.359375 C 47.375 164.230469 46.867188 164.125 46.351562 164.046875 C 45.839844 163.964844 45.320312 163.910156 44.800781 163.878906 C 44.28125 163.851562 43.761719 163.847656 43.242188 163.871094 C 42.722656 163.890625 42.203125 163.9375 41.691406 164.011719 C 41.175781 164.082031 40.664062 164.179688 40.15625 164.304688 C 39.652344 164.425781 39.152344 164.574219 38.664062 164.746094 C 38.171875 164.917969 37.691406 165.113281 37.21875 165.332031 C 36.746094 165.550781 36.285156 165.792969 35.835938 166.058594 C 35.386719 166.320312 34.953125 166.605469 34.535156 166.914062 C 34.113281 167.222656 33.710938 167.546875 33.320312 167.894531 C 32.933594 168.242188 32.5625 168.605469 32.210938 168.988281 C 31.859375 169.371094 31.527344 169.769531 31.210938 170.1875 C 30.898438 170.601562 30.609375 171.03125 30.335938 171.476562 C 30.066406 171.921875 29.816406 172.378906 29.59375 172.847656 C 29.367188 173.316406 29.164062 173.792969 28.984375 174.285156 C 28.804688 174.773438 28.652344 175.269531 28.519531 175.773438 C 28.390625 176.277344 28.285156 176.785156 28.207031 177.300781 C 28.125 177.8125 28.070312 178.332031 28.042969 178.851562 C 28.011719 179.371094 28.007812 179.890625 28.03125 180.410156 C 28.050781 180.929688 28.097656 181.445312 28.171875 181.960938 C 28.246094 182.476562 28.34375 182.988281 28.464844 183.492188 C 28.585938 184 28.734375 184.5 28.90625 184.988281 L 49.761719 244.378906 C 50.773438 247.261719 52.066406 250.015625 53.636719 252.636719 C 55.207031 255.257812 57.023438 257.695312 59.089844 259.949219 C 61.152344 262.203125 63.421875 264.226562 65.898438 266.019531 C 68.371094 267.8125 71 269.339844 73.785156 270.597656 Z M 406.832031 211.085938 L 482.074219 310.84375 C 484.078125 313.523438 485.992188 316.265625 487.8125 319.070312 C 489.636719 321.878906 491.363281 324.742188 492.996094 327.660156 C 494.628906 330.582031 496.167969 333.550781 497.601562 336.574219 C 499.039062 339.59375 500.375 342.660156 501.613281 345.769531 C 502.847656 348.878906 503.976562 352.027344 505.003906 355.210938 C 506.03125 358.394531 506.953125 361.609375 507.765625 364.855469 C 508.582031 368.101562 509.289062 371.367188 509.890625 374.660156 C 510.488281 377.953125 510.976562 381.261719 511.359375 384.582031 C 511.738281 387.90625 512.011719 391.242188 512.171875 394.582031 C 512.332031 397.925781 512.382812 401.269531 512.324219 404.613281 C 512.261719 407.960938 512.09375 411.300781 511.8125 414.632812 C 511.53125 417.96875 511.144531 421.289062 510.644531 424.597656 C 510.144531 427.90625 509.535156 431.195312 508.820312 434.460938 C 508.101562 437.730469 507.28125 440.972656 506.347656 444.183594 C 505.417969 447.398438 504.382812 450.578125 503.242188 453.722656 C 502.101562 456.871094 500.859375 459.972656 499.515625 463.039062 C 498.324219 465.871094 497.039062 468.660156 495.664062 471.40625 C 494.285156 474.152344 492.820312 476.847656 491.261719 479.496094 C 489.703125 482.144531 488.058594 484.738281 486.328125 487.277344 C 484.597656 489.816406 482.785156 492.296875 480.890625 494.714844 C 478.996094 497.128906 477.019531 499.484375 474.96875 501.769531 C 472.914062 504.054688 470.789062 506.269531 468.585938 508.414062 C 466.386719 510.558594 464.117188 512.625 461.777344 514.617188 C 459.4375 516.609375 457.035156 518.523438 454.570312 520.351562 C 452.101562 522.183594 449.578125 523.933594 446.996094 525.597656 C 444.410156 527.257812 441.777344 528.835938 439.085938 530.320312 C 436.398438 531.808594 433.664062 533.207031 430.882812 534.511719 C 428.101562 535.816406 425.277344 537.027344 422.417969 538.140625 C 419.554688 539.257812 416.65625 540.277344 413.726562 541.199219 C 410.796875 542.125 407.839844 542.949219 404.851562 543.671875 C 401.867188 544.398438 398.863281 545.023438 395.835938 545.546875 C 392.808594 546.074219 389.765625 546.496094 386.710938 546.816406 C 375.246094 547.917969 363.785156 547.917969 352.320312 546.816406 C 349.265625 546.496094 346.222656 546.074219 343.195312 545.546875 C 340.167969 545.023438 337.164062 544.398438 334.175781 543.671875 C 331.191406 542.949219 328.234375 542.125 325.304688 541.199219 C 322.371094 540.277344 319.476562 539.257812 316.613281 538.140625 C 313.75 537.027344 310.929688 535.816406 308.148438 534.511719 C 305.367188 533.207031 302.632812 531.808594 299.941406 530.320312 C 297.253906 528.835938 294.617188 527.257812 292.035156 525.597656 C 289.453125 523.933594 286.925781 522.183594 284.460938 520.351562 C 281.996094 518.523438 279.59375 516.609375 277.253906 514.617188 C 274.914062 512.625 272.644531 510.558594 270.445312 508.414062 C 268.242188 506.269531 266.117188 504.054688 264.0625 501.769531 C 262.011719 499.484375 260.035156 497.132812 258.140625 494.714844 C 256.246094 492.296875 254.429688 489.816406 252.699219 487.277344 C 250.96875 484.738281 249.328125 482.144531 247.769531 479.496094 C 246.210938 476.847656 244.746094 474.152344 243.367188 471.40625 C 241.992188 468.660156 240.707031 465.871094 239.515625 463.039062 C 238.171875 459.972656 236.925781 456.871094 235.789062 453.722656 C 234.648438 450.578125 233.613281 447.398438 232.679688 444.183594 C 231.75 440.972656 230.925781 437.730469 230.210938 434.460938 C 229.496094 431.195312 228.886719 427.90625 228.386719 424.597656 C 227.886719 421.289062 227.496094 417.96875 227.21875 414.632812 C 226.9375 411.300781 226.765625 407.960938 226.707031 404.613281 C 226.648438 401.269531 226.699219 397.925781 226.859375 394.582031 C 227.019531 391.242188 227.289062 387.90625 227.671875 384.582031 C 228.050781 381.261719 228.542969 377.953125 229.140625 374.660156 C 229.742188 371.367188 230.449219 368.101562 231.261719 364.855469 C 232.078125 361.609375 233 358.394531 234.027344 355.210938 C 235.054688 352.027344 236.183594 348.878906 237.417969 345.769531 C 238.652344 342.660156 239.988281 339.59375 241.425781 336.574219 C 242.863281 333.550781 244.398438 330.582031 246.03125 327.660156 C 247.667969 324.742188 249.394531 321.878906 251.214844 319.070312 C 253.039062 316.265625 254.953125 313.523438 256.953125 310.84375 L 332.199219 211.085938 C 332.742188 210.371094 333.304688 209.667969 333.890625 208.984375 C 334.472656 208.300781 335.078125 207.632812 335.699219 206.984375 C 336.320312 206.332031 336.960938 205.703125 337.621094 205.089844 C 338.28125 204.476562 338.957031 203.882812 339.648438 203.308594 C 340.34375 202.734375 341.050781 202.179688 341.777344 201.648438 C 342.5 201.117188 343.242188 200.605469 343.996094 200.113281 C 344.75 199.625 345.519531 199.15625 346.300781 198.707031 C 347.082031 198.261719 347.875 197.839844 348.679688 197.4375 C 349.488281 197.039062 350.304688 196.660156 351.132812 196.308594 C 351.960938 195.957031 352.796875 195.625 353.644531 195.320312 C 354.488281 195.015625 355.34375 194.734375 356.207031 194.480469 C 357.070312 194.222656 357.9375 193.992188 358.816406 193.789062 C 359.691406 193.582031 360.574219 193.402344 361.457031 193.246094 C 362.34375 193.09375 363.234375 192.964844 364.128906 192.859375 C 365.023438 192.757812 365.917969 192.679688 366.816406 192.628906 C 367.714844 192.574219 368.617188 192.550781 369.515625 192.550781 C 370.414062 192.550781 371.3125 192.574219 372.210938 192.628906 C 373.109375 192.679688 374.007812 192.757812 374.902344 192.859375 C 375.792969 192.964844 376.683594 193.09375 377.570312 193.246094 C 378.457031 193.402344 379.339844 193.582031 380.214844 193.789062 C 381.089844 193.992188 381.960938 194.222656 382.824219 194.480469 C 383.6875 194.734375 384.539062 195.015625 385.386719 195.320312 C 386.234375 195.625 387.070312 195.957031 387.898438 196.308594 C 388.726562 196.660156 389.542969 197.039062 390.347656 197.4375 C 391.15625 197.839844 391.949219 198.261719 392.730469 198.707031 C 393.511719 199.15625 394.28125 199.625 395.035156 200.113281 C 395.789062 200.605469 396.527344 201.117188 397.253906 201.648438 C 397.976562 202.179688 398.6875 202.734375 399.378906 203.308594 C 400.074219 203.882812 400.75 204.476562 401.410156 205.089844 C 402.066406 205.703125 402.707031 206.332031 403.332031 206.984375 C 403.953125 207.632812 404.554688 208.300781 405.140625 208.984375 C 405.726562 209.667969 406.289062 210.371094 406.832031 211.085938 Z M 372.6875 496.207031 C 367.808594 494.8125 363.03125 493.136719 358.351562 491.171875 C 353.675781 489.210938 349.128906 486.976562 344.71875 484.472656 C 340.304688 481.96875 336.058594 479.214844 331.972656 476.207031 C 327.890625 473.199219 324 469.957031 320.300781 466.484375 C 316.601562 463.015625 313.121094 459.335938 309.859375 455.449219 C 306.597656 451.566406 303.578125 447.5 300.800781 443.253906 C 298.023438 439.011719 295.507812 434.617188 293.253906 430.070312 C 291 425.527344 289.019531 420.867188 287.320312 416.085938 C 287.058594 415.324219 286.726562 414.597656 286.324219 413.902344 C 285.921875 413.207031 285.453125 412.558594 284.921875 411.953125 C 284.390625 411.351562 283.804688 410.804688 283.164062 410.316406 C 282.527344 409.828125 281.847656 409.410156 281.125 409.054688 C 280.402344 408.703125 279.652344 408.421875 278.875 408.214844 C 278.097656 408.007812 277.308594 407.878906 276.507812 407.828125 C 275.703125 407.777344 274.90625 407.808594 274.109375 407.914062 C 273.3125 408.019531 272.53125 408.203125 271.773438 408.464844 C 271.011719 408.726562 270.28125 409.054688 269.585938 409.460938 C 268.890625 409.863281 268.242188 410.332031 267.640625 410.863281 C 267.035156 411.394531 266.492188 411.980469 266.003906 412.617188 C 265.515625 413.257812 265.09375 413.9375 264.742188 414.660156 C 264.386719 415.382812 264.105469 416.132812 263.898438 416.910156 C 263.695312 417.6875 263.566406 418.476562 263.515625 419.277344 C 263.464844 420.082031 263.492188 420.878906 263.597656 421.675781 C 263.707031 422.472656 263.890625 423.253906 264.148438 424.011719 C 265.148438 426.875 266.234375 429.699219 267.402344 432.496094 C 268.570312 435.292969 269.824219 438.046875 271.160156 440.769531 C 272.496094 443.488281 273.910156 446.164062 275.40625 448.800781 C 276.902344 451.433594 278.476562 454.023438 280.128906 456.5625 C 281.777344 459.101562 283.503906 461.589844 285.304688 464.027344 C 287.105469 466.464844 288.980469 468.84375 290.921875 471.167969 C 292.867188 473.492188 294.878906 475.753906 296.960938 477.957031 C 299.039062 480.160156 301.183594 482.300781 303.394531 484.371094 C 305.601562 486.445312 307.871094 488.453125 310.199219 490.390625 C 312.53125 492.328125 314.914062 494.195312 317.355469 495.988281 C 319.796875 497.78125 322.289062 499.5 324.835938 501.144531 C 327.378906 502.789062 329.972656 504.355469 332.609375 505.84375 C 335.25 507.332031 337.929688 508.742188 340.65625 510.070312 C 343.378906 511.394531 346.140625 512.640625 348.9375 513.800781 C 351.734375 514.964844 354.566406 516.039062 357.429688 517.03125 C 360.292969 518.023438 363.183594 518.925781 366.101562 519.746094 C 367.15625 519.929688 368.214844 519.929688 369.269531 519.746094 C 370.070312 519.847656 370.875 519.871094 371.679688 519.816406 C 372.484375 519.761719 373.277344 519.628906 374.054688 519.421875 C 374.835938 519.210938 375.585938 518.925781 376.308594 518.566406 C 377.03125 518.207031 377.714844 517.78125 378.355469 517.289062 C 378.992188 516.796875 379.578125 516.246094 380.109375 515.640625 C 380.640625 515.03125 381.105469 514.378906 381.507812 513.679688 C 381.910156 512.976562 382.242188 512.246094 382.5 511.480469 C 382.757812 510.714844 382.9375 509.933594 383.042969 509.132812 C 383.148438 508.332031 383.171875 507.53125 383.117188 506.726562 C 383.0625 505.917969 382.933594 505.128906 382.722656 504.347656 C 382.511719 503.570312 382.226562 502.816406 381.871094 502.09375 C 381.511719 501.371094 381.085938 500.6875 380.59375 500.050781 C 380.101562 499.410156 379.554688 498.824219 378.945312 498.292969 C 378.339844 497.761719 377.683594 497.292969 376.984375 496.890625 C 376.285156 496.488281 375.554688 496.15625 374.789062 495.898438 C 374.023438 495.640625 373.242188 495.460938 372.441406 495.355469 Z M 372.6875 496.207031 "/></g></g></svg>